<?xml version="1.0" ?><svg viewBox="0 0 500 500" xmlns="http://www.w3.org/2000/svg"><defs><style>.cls-1{fill:#1e1e1e;}.cls-1,.cls-10,.cls-11,.cls-12,.cls-13,.cls-14,.cls-6,.cls-8,.cls-9{stroke:#000;stroke-miterlimit:10;}.cls-1,.cls-10,.cls-11,.cls-12,.cls-13,.cls-6{stroke-width:5px;}.cls-2{fill:#464839;}.cls-3{fill:#393a34;}.cls-4{fill:#5e5a40;}.cls-5{fill:#4c4e38;}.cls-14,.cls-6{fill:none;}.cls-7{opacity:0.1;}.cls-8{fill:#595757;}.cls-14,.cls-8,.cls-9{stroke-width:2.5px;}.cls-9{fill:#3e3a39;}.cls-10{fill:#f7d500;}.cls-11{fill:#c21f1b;}.cls-12{fill:#479d23;}.cls-13{fill:#0081c8;}.cls-15{fill:#fff;}.cls-16{fill:#231815;}</style></defs><title/><g data-name="图层 1" id="图层_1"><path class="cls-1" d="M351,172.4a9.93,9.93,0,0,0-5.68-5.53l-32.55-12.31a20.42,20.42,0,0,0-16.71,1L287.68,160H212.32L204,155.58a20.42,20.42,0,0,0-16.71-1l-32.55,12.31A9.93,9.93,0,0,0,149,172.4l-2.53,6.19v34.35h207V178.6Z"/><path class="cls-2" d="M393.64,286.53c4.15,29.18.12,54.4-23.62,60a10.22,10.22,0,0,1-9.54-2.76L347.77,331l11.37-2.6V285.3Z"/><path class="cls-3" d="M393.64,286.53l-34.5-1.23v43.14L347.77,331l-21.85-21.85,9.81-4.49,3.5-19.4,3.92-21.73L371,271l20.94,5.59C392.61,279.94,393.18,283.26,393.64,286.53Z"/><path class="cls-4" d="M391.95,276.6,371,271l-16.48-92a11.21,11.21,0,0,1,5.58,5.51C366.32,197.81,384.61,239,391.95,276.6Z"/><path class="cls-5" d="M354.53,179,371,271l-27.86-7.44-3.92,21.73-27.95-44.68L280,254.23,228.8,218.15l39.9-22.76h4.91a6.55,6.55,0,0,0,4.94-2.25l7.6-8.7,41.11,15.85,16.86-24.82,9.37,3.13C353.84,178.72,354.19,178.86,354.53,179Z"/><path class="cls-2" d="M344.12,175.47l-16.86,24.82-41.11-15.85L298.5,170.3a15.54,15.54,0,0,1,16.65-4.52Z"/><path class="cls-4" d="M311.28,240.62l27.95,44.68-3.5,19.4-9.81,4.49-6-6a18.8,18.8,0,0,0-13.3-5.51H257.79l-7.71-30.48,29.88-13Z"/><path class="cls-2" d="M280,254.23l-29.88,13,7.71,30.48H193.38a18.81,18.81,0,0,0-11.7,4.08l24.8-48.62,22.32-35Z"/><polygon class="cls-4" points="268.7 195.38 228.8 218.15 232.86 195.38 268.7 195.38"/><path class="cls-3" d="M232.86,195.39l-4.06,22.76-22.32,35-45.09-79.52,23.46-7.85a15.56,15.56,0,0,1,16.66,4.52l19.94,22.84a6.55,6.55,0,0,0,4.94,2.25Z"/><path class="cls-4" d="M161.39,173.63l45.09,79.52-24.8,48.62-18.35-8.68,6.55-39.94-21.21,22.61-36.48-16.91c2.08-7.73,4.47-15.4,7-22.75l21-8.87,6.64-48.71Z"/><path class="cls-3" d="M163.33,293.09l18.35,8.68a18.09,18.09,0,0,0-1.61,1.43l-27.92,27.92-2.28-15.71-26.11-13.09,24.91-26.56,21.21-22.61Z"/><path class="cls-5" d="M149.87,315.41l2.28,15.71-12.63,12.62A10.22,10.22,0,0,1,130,346.5c-31.06-7.29-28.39-48.21-17.79-87.65l36.48,16.91-24.91,26.56Z"/><path class="cls-5" d="M146.76,178.52l-6.64,48.71-21,8.87a530.53,530.53,0,0,1,20.74-51.58,11.22,11.22,0,0,1,6.62-5.92Z"/><path class="cls-6" d="M360.11,184.52a11.25,11.25,0,0,0-6.63-5.92l-38.33-12.83a15.56,15.56,0,0,0-16.66,4.52l-19.94,22.85a6.56,6.56,0,0,1-4.94,2.25H226.39a6.56,6.56,0,0,1-4.94-2.25L201.5,170.29a15.56,15.56,0,0,0-16.66-4.52L146.51,178.6a11.25,11.25,0,0,0-6.62,5.92c-11.67,25-66.2,148.77-9.9,162a10.22,10.22,0,0,0,9.54-2.75l40.54-40.54a18.82,18.82,0,0,1,13.31-5.51H306.62a18.82,18.82,0,0,1,13.31,5.51l40.54,40.54a10.22,10.22,0,0,0,9.54,2.75C426.32,333.28,371.79,209.55,360.11,184.52Z"/><circle class="cls-1" cx="230.1" cy="211.49" r="6.65"/><circle class="cls-1" cx="269.9" cy="211.49" r="6.65"/><circle class="cls-7" cx="177.02" cy="211.65" r="27.15"/><circle class="cls-7" cx="289.05" cy="256.19" r="27.15"/><circle class="cls-1" cx="177.02" cy="211.65" r="22.23"/><circle class="cls-7" cx="213.12" cy="258.93" r="24.01"/><circle class="cls-8" cx="177.02" cy="211.65" r="15.58"/><circle class="cls-9" cx="177.02" cy="211.65" r="9.09"/><circle class="cls-1" cx="289.05" cy="256.19" r="22.23"/><circle class="cls-8" cx="289.05" cy="256.19" r="15.58"/><circle class="cls-9" cx="289.05" cy="256.19" r="9.09"/><path class="cls-1" d="M226.05,252.87h-6.87V246a6.06,6.06,0,0,0-12.12,0v6.87h-6.87a6.06,6.06,0,0,0,0,12.12h6.87v6.87a6.06,6.06,0,0,0,12.12,0V265h6.87a6.06,6.06,0,1,0,0-12.12Z"/><rect class="cls-10" height="19.6" rx="9.8" ry="9.8" width="19.6" x="313.17" y="181.67"/><rect class="cls-11" height="19.6" rx="9.8" ry="9.8" transform="translate(554.8 -131.5) rotate(90)" width="19.6" x="333.35" y="201.85"/><rect class="cls-12" height="19.6" rx="9.8" ry="9.8" transform="translate(645.95 463.66) rotate(-180)" width="19.6" x="313.17" y="222.03"/><rect class="cls-13" height="19.6" rx="9.8" ry="9.8" transform="translate(91.15 514.45) rotate(-90)" width="19.6" x="293" y="201.85"/><line class="cls-14" x1="212.32" x2="204.81" y1="159.96" y2="174.08"/><line class="cls-14" x1="287.68" x2="295.19" y1="159.96" y2="174.08"/><circle class="cls-15" cx="250.08" cy="177.46" r="11.18"/><path class="cls-16" d="M253.52,170.49,243.11,180.9c-2.28,2.28,1.26,5.81,3.54,3.54L257.06,174c2.28-2.28-1.26-5.81-3.54-3.54Z"/><path class="cls-16" d="M257.06,180.9l-10.41-10.41c-2.28-2.28-5.81,1.26-3.54,3.54l10.41,10.41c2.28,2.28,5.81-1.26,3.54-3.54Z"/><circle class="cls-6" cx="250.08" cy="177.46" r="13.01"/></g></svg>