<?xml version="1.0" ?><!DOCTYPE svg  PUBLIC '-//W3C//DTD SVG 1.1//EN'  'http://www.w3.org/Graphics/SVG/1.1/DTD/svg11.dtd'><svg height="512px" style="enable-background:new 0 0 512 512;" version="1.1" viewBox="0 0 512 512" width="512px" xml:space="preserve" xmlns="http://www.w3.org/2000/svg" xmlns:xlink="http://www.w3.org/1999/xlink"><g id="Air_force_x2C__airplane_x2C__fighter_x2C__intercepter_x2C__jet_plane"><g><path d="M88.105,201.401l20.639-6.211c0.69,0.067,1.519,0.831,2.142,1.175    c1.655,0.825,3.589,1.934,5.385,2.551c5.112,1.872,9.739,4.838,14.849,6.701c1.444,0.552,2.826,1.792,4.277,2.344    c10.908,4.004,20.787,10.633,31.695,14.637c3.314,1.175,6.284,3.245,9.595,4.489c0.557,0.416,1.174,0.759,1.726,1.107    c1.519,0.477,3.453-0.211,5.177-0.14c3.934,0.065,8.013-0.208,12.154-0.137c8.497,0.202,17.396,0.202,25.889,0    c47.712-12.846,113.376-57.517,156.735-45.986c2.689,0.692,5.521,1.448,8.286,2.282c0.965,0.273,2.14,0.967,3.104,1.033    c2.274-0.416,4.56-0.825,6.834-1.24c5.869-0.344,11.252-1.797,16.919-1.934c4.351-0.14,8.697-0.208,13.052-0.348    c2.14,0,3.932-0.552,6.071-0.415c3.867,0.208,8.013,0.49,11.951,0.971c1.725,0.208,3.932,0.83,5.66,0.896l21.127-3.8    l-118.139,36.739c1.04,0.41,4.691,0.065,6.008-0.217c-0.071,0.354,0,0.217-0.071,0.49c-0.206,0.208-0.617,0.552-1.1,0.963    c-10.496,2.697-20.993,6.219-31.9,9.256c-13.052,3.729-27.132,5.937-40.602,7.799c-16.571,2.278-33.347,4.004-50.054,5.456    c-23.475,2.142-46.95,3.726-70.363,5.8c-4.827-1.033-9.731-1.934-14.561-2.967c-3.178-0.626-6.423-1.314-9.671-2.009    c-1.246-0.269-2.689-0.552-4.07-0.896c-1.107-1.036-2.349-2-3.524-2.97c-2.757-2.272-5.592-4.551-8.426-6.767    c-7.729-6.14-15.537-12.213-23.336-18.288C97.074,208.308,92.591,204.852,88.105,201.401L88.105,201.401z M341.848,284.33    l-0.558,10.628c-1.515,0.07-3.033,0.209-4.556,0.344c-0.067,0.558,0,0.625-0.213,0.897c0.074,0.764,0.074,1.246-0.064,1.661    c-2.692,0.344-3.381-0.28-3.938-2.487c-1.788,0.209-3.658,0.344-5.45,0.486c0.135,2.277,0.344,4.556,0.546,6.905    c-0.755,0.063-1.515,0.135-2.345,0.135c0.276,2.626,0.767,6.007-0.067,7.668c-1.101,0.198-2.552,0-4.142,0.063    c0.071,0.419,0.135,0.692,0.277,0.969c2.416,1.036,4.208,3.382,4.418,6.218c0.344,4.073-2.693,7.66-6.768,7.934    c-4.077,0.344-7.664-2.686-8.009-6.767c-0.209-2.48,0.827-4.762,2.626-6.281l-0.139-1.447l-29.896,2.207l-3.25-3.658    c-0.273-3.243-0.547-6.494-0.823-9.662l1.519-1.729l-28.102,1.796l0.275,2.962l-34.317,4.631l-5.732,6.218    c1.726,1.795,2.833,4.141,3.041,6.763c0.481,6.012-4.004,11.327-10.012,11.806c-6.008,0.482-11.256-4.003-11.737-10.01    c-0.48-6.008,3.934-11.256,9.87-11.813l-0.688-8.689c-13.049,0.617-26.162,1.167-39.219,1.725    c-2.759,3.52-11.389,10.145-15.256,13.731l-26.789-4.548l-0.694-9.184l-58.134-3.939l-23.2,1.871l-3.108-29.762l18.301-1.451    l-0.899-8.499l3.041-0.272l-0.626-8.009c-1.655-4.141-32.383-57.647-35.142-60.76c-0.069-0.412,34.454-3.038,37.839-3.316    c3.382,1.109,67.731,50.887,73.464,56.556c1.378,0.754,27.271,5.729,31.481,6.69c49.368-4.418,124.148-8.144,163.5-19.405    c29.065-8.007,56.271-20.158,86.032-8.208c10.841,3.032,101.907,15.122,49.92,37.354c2.827-0.214,25.541-0.412,25.684,0.961    L341.848,284.33z M209.414,311.529l0.831,0.344l3.107-3.658c-1.382,0.139-2.763,0.209-4.145,0.344L209.414,311.529z" style="fill:#262626;"/></g></g><g id="Layer_1"/></svg>